<svg xmlns="http://www.w3.org/2000/svg" xmlns:xlink="http://www.w3.org/1999/xlink" preserveAspectRatio="xMidYMid" width="287" height="209" viewBox="0 0 287 209">
  <defs>
    <style>

    .path {
  
  -webkit-animation: dash 20s linear forwards;
  animation: dash 20s linear forwards;
}
 
 @-webkit-keyframes dash {
  100% {
    stroke-dashoffset: 0;
  }
}
@keyframes dash {
  100% {
    stroke-dashoffset: 0;
  }
}


      .cls-3 {
        fill: #0d0d0d;
        stroke: #0d0d0d;
        stroke-width: 1px;
      }
    </style>
  </defs>
  <g id="group-1">
    <path d="M258.510 1.8 C258.510 1.8 257.8 0.5 257.8 0.5 C257.802 0.5 143.7 205.7 143.7 205.7 C143.663 205.7 144.4 206.9 144.4 206.9 C144.371 206.9 258.5 1.8 258.5 1.8 Z" id="path-1" class="path" fill-rule="evenodd"/>
    <path d="M29.490 3 C29.490 3 30.2 1.7 30.2 1.7 C30.196 1.7 144 206.3 144 206.3 C144.025 206.3 143.3 207.5 143.3 207.5 C143.319 207.5 29.5 3 29.5 3 Z" id="path-2" class="path" fill-rule="evenodd"/>
    <path d="M0.500 104.5 C0.500 104.5 0.5 103.5 0.5 103.5 C0.500 103.5 286.5 103.5 286.5 103.5 C286.500 103.5 286.5 104.5 286.5 104.5 C286.500 104.5 0.5 104.5 0.5 104.5 Z" id="path-3" class="path" fill-rule="evenodd"/>
  </g>
</svg>
